<?xml version="1.0" encoding="utf-8"?>
<!-- Generator: Adobe Illustrator 24.2.0, SVG Export Plug-In . SVG Version: 6.00 Build 0)  -->
<svg version="1.1" id="Capa_1" xmlns="http://www.w3.org/2000/svg" xmlns:xlink="http://www.w3.org/1999/xlink" x="0px" y="0px"
	 viewBox="0 0 200 200" style="enable-background:new 0 0 200 200;" xml:space="preserve">
<style type="text/css">
	.st0{fill:#D81E1E;}
	.st1{fill:none;}
	.st2{fill:#369AB2;}
</style>
<path class="st0" d="M140.65,92.68h23.2l-17.61-16.16c-0.17-0.15-13.04-12-13.04-12.31c0-12.77-0.17-10.16-0.17-22.62
	c0-0.15,0-0.15,0-0.31c0-0.62,0.51-1.08,1.19-1.08c2.88,0,3.89-0.92,3.89-3.54c0-3.39,0-0.46,0-4c0-1.85-1.19-3.08-3.22-3.08
	c-11.17,0-9.65,0-20.83,0c-2.37,0-4.23,1.69-4.4,3.85c0,3.39,0,0.46,0,3.85c0,1.69,1.35,2.77,3.22,2.77c0.17,0,0.34,0,0.51,0
	c0.68,0,1.19,0.46,1.19,1.08v6.46L84.27,20.35c-0.51-0.46-1.19-0.46-1.69,0L3,92.68h23.2l0,53.93h6.26c0.68,0,1.19-0.46,1.19-1.08
	l0-53.31c0-0.31,0.17-0.62,0.34-0.77l42.16-38.32c4.06-3.69,10.5-3.69,14.56,0l42.16,38.32c0.17,0.15,0.34,0.46,0.34,0.77v16.77
	c0,0.62,0.51,1.08,1.19,1.08h6.26C140.65,110.07,140.65,92.68,140.65,92.68z"/>
<path d="M97.55,107.42c0,9.41-7.53,17.02-16.84,17.02s-16.84-7.61-16.84-17.02c0-2.84,0.64-5.42,1.91-7.87
	c0.89,3.61,4.08,6.32,7.91,6.32c4.59,0,8.17-3.74,8.17-8.25c0-2.97-1.53-5.55-3.83-6.96c0.89-0.13,1.79-0.26,2.68-0.26
	C90.02,90.4,97.55,98.01,97.55,107.42z"/>
<g>
	
		<ellipse transform="matrix(0.9972 -0.0748 0.0748 0.9972 -7.7195 6.3607)" class="st1" cx="81.07" cy="106.25" rx="26.03" ry="25.97"/>
	<path class="st1" d="M150.26,122.89l1.69,1.99c1.65-0.98,2.72-1.85,3.2-2.59c0.49-0.74,0.73-1.56,0.73-2.46
		c0-1.07-0.34-1.94-1-2.62c-0.67-0.68-1.5-1.02-2.51-1.02c-1.03,0-1.89,0.34-2.57,1c-0.68,0.67-1.03,1.49-1.03,2.46
		c0,0.48,0.12,0.99,0.37,1.53C149.39,121.73,149.76,122.29,150.26,122.89z"/>
	<path class="st1" d="M146.16,132.88c-0.72,1.06-1.08,2.11-1.08,3.15c0,1.27,0.5,2.59,1.5,3.95c1,1.37,2.42,2.05,4.25,2.05
		c1.14,0,2.32-0.36,3.54-1.08c1.22-0.72,2.2-1.65,2.93-2.79l-6.98-8.74C148.26,130.67,146.87,131.82,146.16,132.88z"/>
	<path class="st1" d="M187.2,117.55c-0.69-0.19-1.97-0.28-3.83-0.28h-7.93v11.2h8.01c2.65,0,4.53-0.5,5.65-1.5
		c1.11-1,1.67-2.4,1.67-4.21c0-1.31-0.33-2.43-0.98-3.37C189.13,118.46,188.27,117.85,187.2,117.55z"/>
	<path class="st2" d="M117.12,136.88l-11.53-10.69c1.92-2.46,3.51-5.08,4.77-8.02c1.57-3.92,2.33-8.15,2.27-12.37
		c-0.06-4.22-0.93-8.43-2.61-12.3c-1.68-3.71-4-7.08-6.97-9.96c-2.97-2.88-6.42-5.1-10.18-6.67c-3.93-1.57-8.17-2.32-12.4-2.26
		c-4.23,0.06-8.45,0.93-12.33,2.61c-3.72,1.68-7.1,4-9.99,6.96c-2.89,2.96-5.12,6.4-6.69,10.16c-1.57,3.92-2.33,8.15-2.27,12.37
		c0.06,4.22,0.93,8.43,2.61,12.3c1.68,3.71,4,7.08,6.97,9.96c2.97,2.88,6.42,5.1,10.18,6.67c3.93,1.57,8.17,2.32,12.4,2.26
		c4.23-0.06,8.45-0.93,12.33-2.61c2.91-1.34,5.49-3,7.9-4.98l11.53,10.69 M81.43,132.21c-14.31,0.2-26.19-11.31-26.39-25.59
		c-0.2-14.28,11.35-26.13,25.67-26.33c14.31-0.2,26.19,11.31,26.39,25.59C107.29,120.16,95.74,132.01,81.43,132.21z"/>
	<path class="st2" d="M113.11,140.99C113.11,140.99,113.11,140.99,113.11,140.99c1.55,1.57,3.14,2.58,5.03,3.4
		c1.9,0.83,4.25,1.24,7.05,1.24c2.21,0,4.2-0.41,5.97-1.23c1.77-0.82,3.13-1.97,4.07-3.44c0.94-1.47,1.42-3.05,1.42-4.71
		c0-1.68-0.43-3.17-1.29-4.46c-0.86-1.29-2.19-2.35-4-3.2c-1.24-0.57-3.53-1.24-6.86-2c-3.33-0.76-5.4-1.51-6.18-2.23
		c-0.8-0.73-1.21-1.65-1.21-2.78c0-1.3,0.57-2.4,1.7-3.32c1.13-0.92,2.94-1.38,5.42-1.38c2.38,0,4.18,0.51,5.4,1.52
		c1.22,1.01,1.93,2.51,2.15,4.49l3.93-0.3c-0.07-1.84-0.58-3.48-1.52-4.94c-0.94-1.45-2.29-2.55-4.05-3.3s-3.78-1.12-6.08-1.12
		c-2.09,0-3.98,0.36-5.69,1.07c-1.71,0.71-3,1.76-3.89,3.13c-0.89,1.38-1.33,2.85-1.33,4.44c0,1.44,0.36,2.74,1.09,3.9
		c0.73,1.16,1.83,2.13,3.31,2.92c1.14,0.61,3.14,1.26,5.98,1.96c2.85,0.69,4.69,1.2,5.52,1.53c1.3,0.5,2.23,1.12,2.79,1.85
		c0.56,0.73,0.85,1.59,0.85,2.58c0,0.97-0.29,1.86-0.88,2.68c-0.59,0.82-1.48,1.46-2.67,1.93c-1.2,0.47-2.58,0.55-4.14,0.48
		c-1.78-0.08-2.36-0.25-3.62-1.14c-2.04-1.44-0.94-0.57-4.27-3.68"/>
	<path class="st2" d="M162.16,137.77c1.16-1.77,2.07-4.02,2.75-6.75l-3.95-0.85c-0.35,1.65-0.85,3.11-1.48,4.36l-5.56-7.16
		c3.9-2.11,5.86-4.65,5.86-7.63c0-1.84-0.67-3.41-2.02-4.72c-1.35-1.31-3.08-1.97-5.19-1.97c-2.21,0-4.05,0.69-5.51,2.08
		c-1.46,1.39-2.19,3.02-2.19,4.91c0,0.94,0.23,1.92,0.7,2.93c0.47,1.01,1.4,2.33,2.79,3.95c-2.45,1.18-4.3,2.55-5.53,4.11
		c-1.23,1.56-1.85,3.31-1.85,5.25c0,2.18,0.75,4.15,2.26,5.92c1.86,2.17,4.38,3.25,7.55,3.25c1.72,0,3.32-0.35,4.8-1.06
		c1.48-0.71,2.85-1.76,4.1-3.17c1.64,1.95,3.22,3.43,4.76,4.42l2.56-3.06C165.2,141.28,163.59,139.68,162.16,137.77z M149.8,117.21
		c0.68-0.67,1.54-1,2.57-1c1,0,1.84,0.34,2.51,1.02c0.67,0.68,1,1.55,1,2.62c0,0.9-0.24,1.72-0.73,2.46
		c-0.49,0.74-1.55,1.6-3.2,2.59l-1.69-1.99c-0.49-0.6-0.86-1.16-1.11-1.7c-0.25-0.53-0.37-1.04-0.37-1.53
		C148.78,118.7,149.12,117.88,149.8,117.21z M154.37,140.96c-1.22,0.72-2.4,1.08-3.54,1.08c-1.83,0-3.25-0.68-4.25-2.05
		c-1-1.37-1.5-2.69-1.5-3.95c0-1.04,0.36-2.09,1.08-3.15c0.72-1.06,2.11-2.21,4.17-3.45l6.98,8.74
		C156.57,139.31,155.59,140.24,154.37,140.96z"/>
	<path class="st2" d="M194.06,118.36c-0.63-1.3-1.46-2.3-2.48-3.02c-1.03-0.72-2.3-1.21-3.83-1.46c-1.09-0.2-2.66-0.3-4.72-0.3
		h-11.69v31.33h4.1v-12.74h7.95c4.38,0,7.41-0.92,9.09-2.77c1.68-1.85,2.52-4.1,2.52-6.76C195,121.08,194.69,119.66,194.06,118.36z
		 M189.1,126.97c-1.11,1-3,1.5-5.65,1.5h-8.01v-11.2h7.93c1.86,0,3.14,0.09,3.83,0.28c1.07,0.3,1.93,0.92,2.59,1.85
		c0.66,0.93,0.98,2.06,0.98,3.37C190.77,124.57,190.21,125.98,189.1,126.97z"/>
</g>
<g>
	<path d="M27.55,171.91c-0.36,0-0.67-0.13-0.92-0.38s-0.37-0.56-0.37-0.93v-16.97c0-0.38,0.12-0.7,0.37-0.94s0.55-0.36,0.92-0.36
		h4.96c1.24,0,2.34,0.28,3.3,0.83c0.96,0.55,1.71,1.32,2.24,2.29c0.54,0.98,0.81,2.1,0.81,3.37c0,1.22-0.27,2.31-0.81,3.26
		c-0.54,0.95-1.29,1.7-2.24,2.23c-0.96,0.53-2.06,0.8-3.3,0.8h-3.67v5.49c0,0.37-0.12,0.68-0.36,0.93S27.93,171.91,27.55,171.91z
		 M28.84,162.72h3.67c0.76,0,1.43-0.17,2.01-0.5c0.58-0.33,1.03-0.79,1.36-1.38s0.5-1.25,0.5-2c0-0.8-0.17-1.51-0.5-2.12
		c-0.33-0.61-0.79-1.09-1.36-1.44c-0.58-0.35-1.25-0.53-2.01-0.53h-3.67V162.72z"/>
	<path d="M42.7,171.91c-0.4,0-0.7-0.1-0.92-0.31c-0.22-0.21-0.32-0.52-0.32-0.94v-11.2c0-0.4,0.11-0.71,0.32-0.93
		c0.21-0.22,0.52-0.33,0.92-0.33c0.41,0,0.72,0.1,0.93,0.31s0.31,0.52,0.31,0.94v11.2c0,0.4-0.1,0.71-0.31,0.93
		C43.42,171.81,43.11,171.91,42.7,171.91z M42.67,163.34c0-1,0.24-1.9,0.73-2.69c0.49-0.79,1.14-1.42,1.97-1.89
		c0.83-0.47,1.74-0.7,2.73-0.7s1.73,0.16,2.22,0.49c0.49,0.33,0.67,0.71,0.56,1.17c-0.05,0.23-0.15,0.41-0.29,0.54
		c-0.14,0.13-0.3,0.2-0.48,0.24c-0.18,0.03-0.38,0.03-0.59-0.02c-1.06-0.22-2.01-0.23-2.85-0.05c-0.84,0.18-1.51,0.53-2,1.03
		c-0.49,0.5-0.73,1.14-0.73,1.9H42.67z"/>
	<path d="M58.66,172.01c-1.34,0-2.52-0.3-3.54-0.89c-1.02-0.59-1.83-1.41-2.42-2.46c-0.59-1.04-0.88-2.24-0.88-3.6
		c0-1.37,0.29-2.58,0.88-3.62c0.59-1.04,1.39-1.86,2.42-2.46c1.02-0.59,2.21-0.89,3.54-0.89c1.32,0,2.5,0.3,3.52,0.89
		c1.02,0.59,1.83,1.41,2.42,2.46c0.59,1.04,0.88,2.25,0.88,3.62c0,1.35-0.29,2.55-0.87,3.6c-0.58,1.04-1.38,1.86-2.4,2.46
		C61.18,171.72,60,172.01,58.66,172.01z M58.66,169.76c0.86,0,1.62-0.2,2.28-0.6c0.66-0.4,1.18-0.95,1.55-1.65
		c0.37-0.7,0.56-1.51,0.56-2.43c0-0.92-0.19-1.73-0.56-2.44c-0.37-0.71-0.89-1.27-1.55-1.67s-1.42-0.6-2.28-0.6s-1.62,0.2-2.28,0.6
		s-1.18,0.96-1.56,1.67s-0.57,1.52-0.57,2.44c0,0.92,0.19,1.73,0.57,2.43c0.38,0.7,0.9,1.25,1.56,1.65
		C57.04,169.56,57.8,169.76,58.66,169.76z"/>
	<path d="M70.51,177.78c-0.36,0-0.67-0.12-0.9-0.36c-0.24-0.24-0.36-0.55-0.36-0.92v-11.43c0.02-1.32,0.32-2.51,0.92-3.56
		c0.6-1.05,1.4-1.88,2.43-2.49c1.02-0.61,2.18-0.91,3.47-0.91c1.31,0,2.47,0.3,3.5,0.91c1.02,0.61,1.84,1.44,2.44,2.49
		c0.6,1.05,0.9,2.24,0.9,3.56c0,1.32-0.28,2.5-0.83,3.55s-1.31,1.87-2.27,2.48c-0.96,0.61-2.04,0.92-3.25,0.92
		c-0.98,0-1.87-0.21-2.69-0.61c-0.82-0.41-1.52-0.96-2.1-1.67v6.77c0,0.37-0.12,0.67-0.35,0.92
		C71.2,177.66,70.89,177.78,70.51,177.78z M76.06,169.76c0.84,0,1.59-0.2,2.26-0.61c0.66-0.41,1.19-0.97,1.57-1.68
		s0.58-1.51,0.58-2.39c0-0.9-0.19-1.71-0.58-2.42s-0.91-1.27-1.57-1.68s-1.41-0.61-2.26-0.61c-0.83,0-1.57,0.21-2.24,0.61
		s-1.19,0.97-1.57,1.68c-0.38,0.71-0.57,1.52-0.57,2.42c0,0.89,0.19,1.68,0.57,2.39c0.38,0.71,0.9,1.27,1.57,1.68
		C74.49,169.55,75.24,169.76,76.06,169.76z"/>
	<path d="M88.19,155.98c-0.45,0-0.83-0.16-1.15-0.49s-0.48-0.71-0.48-1.17s0.16-0.84,0.48-1.17c0.32-0.33,0.71-0.49,1.15-0.49
		s0.83,0.16,1.15,0.49c0.32,0.33,0.48,0.71,0.48,1.17s-0.16,0.84-0.48,1.17S88.63,155.98,88.19,155.98z M88.19,171.91
		c-0.36,0-0.67-0.12-0.91-0.36s-0.36-0.55-0.36-0.92v-11.15c0-0.38,0.12-0.69,0.36-0.93c0.24-0.23,0.54-0.35,0.91-0.35
		c0.38,0,0.69,0.12,0.92,0.35c0.23,0.23,0.35,0.54,0.35,0.93v11.15c0,0.37-0.12,0.67-0.35,0.92S88.57,171.91,88.19,171.91z"/>
	<path d="M100.53,172.01c-1.37,0-2.59-0.3-3.66-0.89c-1.07-0.59-1.9-1.41-2.5-2.46c-0.6-1.04-0.9-2.24-0.9-3.6
		c0-1.37,0.29-2.58,0.86-3.62c0.57-1.04,1.36-1.86,2.37-2.46c1.01-0.59,2.16-0.89,3.47-0.89c1.29,0,2.4,0.29,3.32,0.86
		s1.63,1.37,2.12,2.38s0.73,2.18,0.73,3.5c0,0.32-0.11,0.58-0.32,0.79s-0.49,0.31-0.82,0.31H95.2v-2h9.92l-1.02,0.7
		c-0.02-0.83-0.18-1.58-0.5-2.24s-0.76-1.18-1.34-1.57c-0.58-0.38-1.28-0.58-2.11-0.58c-0.94,0-1.75,0.21-2.42,0.63
		c-0.67,0.42-1.18,0.99-1.52,1.72c-0.35,0.73-0.52,1.55-0.52,2.47c0,0.92,0.21,1.74,0.62,2.46c0.41,0.72,0.98,1.29,1.71,1.7
		c0.73,0.42,1.56,0.63,2.5,0.63c0.51,0,1.04-0.1,1.57-0.29s0.97-0.41,1.3-0.66c0.25-0.18,0.52-0.28,0.8-0.29
		c0.29-0.01,0.54,0.08,0.76,0.26c0.28,0.25,0.43,0.53,0.45,0.83c0.02,0.3-0.12,0.56-0.4,0.78c-0.56,0.45-1.26,0.82-2.1,1.1
		C102.09,171.87,101.29,172.01,100.53,172.01z"/>
	<path d="M115.21,172.01c-1.29,0-2.45-0.3-3.48-0.92c-1.03-0.61-1.85-1.44-2.45-2.49c-0.6-1.05-0.91-2.24-0.91-3.56
		s0.28-2.5,0.83-3.55s1.31-1.87,2.27-2.48c0.96-0.61,2.04-0.91,3.25-0.91c0.97,0,1.88,0.2,2.7,0.61c0.83,0.41,1.52,0.96,2.08,1.67
		v-6.77c0-0.38,0.12-0.69,0.36-0.93c0.24-0.23,0.54-0.35,0.9-0.35c0.38,0,0.69,0.12,0.92,0.35s0.35,0.54,0.35,0.93v11.43
		c0,1.32-0.3,2.51-0.91,3.56c-0.6,1.05-1.42,1.88-2.44,2.49C117.66,171.71,116.5,172.01,115.21,172.01z M115.21,169.76
		c0.84,0,1.59-0.2,2.26-0.61c0.66-0.41,1.18-0.97,1.56-1.69c0.38-0.72,0.57-1.52,0.57-2.41c0-0.9-0.19-1.7-0.57-2.41
		c-0.38-0.7-0.9-1.26-1.56-1.67c-0.66-0.41-1.41-0.61-2.26-0.61c-0.83,0-1.57,0.21-2.24,0.61c-0.67,0.41-1.2,0.96-1.59,1.67
		c-0.39,0.7-0.58,1.5-0.58,2.41c0,0.89,0.19,1.69,0.58,2.41c0.39,0.72,0.92,1.28,1.59,1.69
		C113.64,169.55,114.38,169.76,115.21,169.76z"/>
	<path d="M132.14,172.01c-1.21,0-2.29-0.3-3.25-0.92c-0.96-0.61-1.71-1.44-2.27-2.48s-0.83-2.23-0.83-3.55
		c0-1.32,0.3-2.51,0.91-3.56c0.6-1.05,1.42-1.88,2.45-2.49c1.03-0.61,2.19-0.91,3.48-0.91s2.45,0.3,3.47,0.91
		c1.02,0.61,1.84,1.44,2.44,2.49c0.6,1.05,0.91,2.24,0.91,3.56h-0.97c0,1.32-0.28,2.5-0.83,3.55s-1.31,1.87-2.27,2.48
		C134.43,171.71,133.35,172.01,132.14,172.01z M132.64,169.76c0.84,0,1.59-0.2,2.26-0.61c0.66-0.41,1.18-0.97,1.56-1.68
		s0.57-1.51,0.57-2.39c0-0.9-0.19-1.71-0.57-2.42s-0.9-1.27-1.56-1.68c-0.66-0.41-1.41-0.61-2.26-0.61c-0.83,0-1.57,0.21-2.24,0.61
		c-0.67,0.41-1.2,0.97-1.59,1.68c-0.39,0.71-0.58,1.52-0.58,2.42c0,0.89,0.19,1.68,0.58,2.39c0.39,0.71,0.92,1.27,1.59,1.68
		C131.06,169.55,131.81,169.76,132.64,169.76z M138.19,171.94c-0.36,0-0.67-0.12-0.9-0.36c-0.24-0.24-0.36-0.55-0.36-0.92v-3.83
		l0.47-2.66l2.06,0.9v5.59c0,0.37-0.12,0.67-0.36,0.92C138.86,171.82,138.55,171.94,138.19,171.94z"/>
	<path d="M149.37,172.01c-1.29,0-2.45-0.3-3.48-0.92c-1.03-0.61-1.85-1.44-2.45-2.49c-0.6-1.05-0.91-2.24-0.91-3.56
		s0.28-2.5,0.83-3.55s1.31-1.87,2.27-2.48c0.96-0.61,2.04-0.91,3.25-0.91c0.97,0,1.88,0.2,2.7,0.61c0.83,0.41,1.52,0.96,2.08,1.67
		v-6.77c0-0.38,0.12-0.69,0.36-0.93c0.24-0.23,0.54-0.35,0.9-0.35c0.38,0,0.69,0.12,0.92,0.35s0.35,0.54,0.35,0.93v11.43
		c0,1.32-0.3,2.51-0.91,3.56c-0.6,1.05-1.42,1.88-2.44,2.49C151.82,171.71,150.66,172.01,149.37,172.01z M149.37,169.76
		c0.84,0,1.59-0.2,2.26-0.61c0.66-0.41,1.18-0.97,1.56-1.69c0.38-0.72,0.57-1.52,0.57-2.41c0-0.9-0.19-1.7-0.57-2.41
		c-0.38-0.7-0.9-1.26-1.56-1.67c-0.66-0.41-1.41-0.61-2.26-0.61c-0.83,0-1.57,0.21-2.24,0.61c-0.67,0.41-1.2,0.96-1.59,1.67
		c-0.39,0.7-0.58,1.5-0.58,2.41c0,0.89,0.19,1.69,0.58,2.41c0.39,0.72,0.92,1.28,1.59,1.69
		C147.8,169.55,148.54,169.76,149.37,169.76z"/>
	<path d="M167.02,172.01c-1.37,0-2.59-0.3-3.66-0.89c-1.07-0.59-1.9-1.41-2.5-2.46c-0.6-1.04-0.91-2.24-0.91-3.6
		c0-1.37,0.29-2.58,0.86-3.62c0.57-1.04,1.36-1.86,2.37-2.46s2.17-0.89,3.47-0.89c1.29,0,2.4,0.29,3.32,0.86s1.63,1.37,2.12,2.38
		c0.49,1.01,0.73,2.18,0.73,3.5c0,0.32-0.11,0.58-0.32,0.79s-0.49,0.31-0.82,0.31h-9.99v-2h9.92l-1.02,0.7
		c-0.02-0.83-0.18-1.58-0.5-2.24c-0.31-0.66-0.76-1.18-1.34-1.57c-0.58-0.38-1.28-0.58-2.11-0.58c-0.94,0-1.75,0.21-2.42,0.63
		c-0.67,0.42-1.18,0.99-1.52,1.72c-0.35,0.73-0.52,1.55-0.52,2.47c0,0.92,0.21,1.74,0.62,2.46c0.41,0.72,0.98,1.29,1.71,1.7
		c0.73,0.42,1.56,0.63,2.5,0.63c0.51,0,1.04-0.1,1.57-0.29s0.97-0.41,1.3-0.66c0.25-0.18,0.52-0.28,0.81-0.29
		c0.29-0.01,0.54,0.08,0.76,0.26c0.28,0.25,0.43,0.53,0.45,0.83s-0.12,0.56-0.4,0.78c-0.56,0.45-1.26,0.82-2.09,1.1
		C168.58,171.87,167.78,172.01,167.02,172.01z"/>
	<path d="M180.98,172.01c-1.16,0-2.23-0.18-3.21-0.54s-1.75-0.81-2.29-1.37c-0.25-0.27-0.35-0.57-0.31-0.91
		c0.04-0.34,0.2-0.62,0.48-0.84c0.33-0.27,0.66-0.38,0.98-0.34s0.6,0.19,0.83,0.44c0.28,0.32,0.73,0.61,1.35,0.89
		c0.62,0.28,1.31,0.41,2.07,0.41c0.96,0,1.69-0.16,2.19-0.48c0.5-0.32,0.76-0.73,0.78-1.23s-0.22-0.94-0.71-1.3s-1.38-0.67-2.67-0.9
		c-1.67-0.33-2.88-0.83-3.63-1.5c-0.75-0.67-1.13-1.49-1.13-2.46c0-0.85,0.25-1.56,0.74-2.12c0.5-0.56,1.13-0.98,1.91-1.25
		c0.78-0.28,1.59-0.41,2.43-0.41c1.09,0,2.06,0.17,2.9,0.53c0.84,0.35,1.51,0.83,2.01,1.45c0.23,0.27,0.34,0.55,0.32,0.84
		c-0.02,0.29-0.16,0.54-0.42,0.74c-0.26,0.18-0.58,0.24-0.94,0.17c-0.36-0.07-0.67-0.22-0.92-0.45c-0.41-0.4-0.86-0.68-1.34-0.83
		s-1.03-0.23-1.66-0.23c-0.73,0-1.34,0.13-1.85,0.38c-0.5,0.25-0.76,0.62-0.76,1.1c0,0.3,0.08,0.57,0.24,0.81
		c0.16,0.24,0.47,0.46,0.93,0.65c0.46,0.19,1.14,0.38,2.03,0.56c1.24,0.25,2.22,0.57,2.94,0.95c0.72,0.38,1.24,0.83,1.55,1.34
		c0.31,0.51,0.47,1.1,0.47,1.77c0,0.77-0.2,1.46-0.61,2.08c-0.41,0.62-1,1.11-1.79,1.48C183.13,171.83,182.15,172.01,180.98,172.01z
		"/>
</g>
</svg>
